<svg width="280" height="310" viewBox="0 0 280 310" fill="none" xmlns="http://www.w3.org/2000/svg">
<path d="M126.978 124.068L185.495 301.316M215.989 5.38701L274.506 182.635M215.466 5.32967L126.842 63.8462M274.807 242.692L186.183 301.209M215.659 123.681H185.989V183.022M215.659 123.681V183.022H185.989M215.659 123.681L185.989 183.022M5.32967 5.65934L63.8462 304.341M129.945 301.703H182.692C184.513 301.703 185.989 300.227 185.989 298.407V126.978C185.989 125.157 184.513 123.681 182.692 123.681H129.945C128.124 123.681 126.648 125.157 126.648 126.978V298.407C126.648 300.227 128.124 301.703 129.945 301.703ZM218.956 183.022H271.703C273.524 183.022 275 181.546 275 179.725V8.29671C275 6.47599 273.524 5 271.703 5H218.956C217.135 5 215.659 6.47599 215.659 8.2967V179.725C215.659 181.546 217.135 183.022 218.956 183.022ZM215.659 5V61.044C215.659 62.8647 214.183 64.3407 212.363 64.3407L129.945 64.3407C128.124 64.3407 126.648 62.8647 126.648 61.044V8.2967C126.648 6.47599 128.124 5 129.945 5L215.659 5ZM185.989 301.703H271.703C273.524 301.703 275 300.227 275 298.407V245.659C275 243.839 273.524 242.363 271.703 242.363H189.286C187.465 242.363 185.989 243.839 185.989 245.659V301.703ZM8.2967 305H61.044C62.8647 305 64.3407 303.524 64.3407 301.703L64.3406 8.2967C64.3406 6.47598 62.8647 5 61.0439 5H8.2967C6.47598 5 5 6.47598 5 8.2967V301.703C5 303.524 6.47599 305 8.2967 305Z" stroke="url(#paint0_linear)" stroke-width="9"/>
<defs>
<linearGradient id="paint0_linear" x1="275" y1="5" x2="5.00003" y2="305" gradientUnits="userSpaceOnUse">
<stop stop-color="#EB6C85"/>
<stop offset="1" stop-color="#C265E8"/>
</linearGradient>
</defs>
</svg>
