<svg width="48" height="48" viewBox="0 0 48 48" fill="none" xmlns="http://www.w3.org/2000/svg">
<path d="M28.476 30.696C28.646 30.864 28.646 31.138 28.476 31.308C27.546 32.232 26.088 32.682 24.014 32.682L23.998 32.678L23.982 32.682C21.91 32.682 20.45 32.232 19.52 31.306C19.35 31.138 19.35 30.864 19.52 30.696C19.688 30.528 19.964 30.528 20.134 30.696C20.892 31.45 22.15 31.818 23.982 31.818L23.998 31.822L24.014 31.818C25.844 31.818 27.102 31.45 27.862 30.696C28.032 30.528 28.308 30.528 28.476 30.696ZM21.596 25.86C21.596 24.846 20.768 24.022 19.752 24.022C18.734 24.022 17.906 24.846 17.906 25.86C17.906 26.872 18.734 27.696 19.752 27.696C20.768 27.698 21.596 26.874 21.596 25.86ZM48 24C48 37.254 37.254 48 24 48C10.746 48 0 37.254 0 24C0 10.746 10.746 0 24 0C37.254 0 48 10.746 48 24ZM38 23.742C38 22.04 36.61 20.656 34.9 20.656C34.066 20.656 33.31 20.99 32.752 21.526C30.64 20.136 27.782 19.252 24.62 19.138L26.35 13.69L31.036 14.788L31.03 14.856C31.03 16.248 32.168 17.38 33.566 17.38C34.964 17.38 36.1 16.248 36.1 14.856C36.1 13.464 34.964 12.332 33.566 12.332C32.492 12.332 31.578 13.002 31.208 13.94L26.158 12.756C25.938 12.702 25.712 12.83 25.644 13.046L23.714 19.122C20.402 19.162 17.404 20.054 15.198 21.484C14.644 20.974 13.91 20.654 13.098 20.654C11.39 20.656 10 22.04 10 23.742C10 24.874 10.622 25.854 11.536 26.392C11.476 26.72 11.436 27.054 11.436 27.392C11.436 31.954 17.046 35.666 23.942 35.666C30.838 35.666 36.448 31.954 36.448 27.392C36.448 27.072 36.414 26.758 36.36 26.448C37.332 25.926 38 24.916 38 23.742V23.742ZM28.256 24.024C27.238 24.024 26.412 24.848 26.412 25.862C26.412 26.874 27.24 27.698 28.256 27.698C29.272 27.698 30.1 26.874 30.1 25.862C30.1 24.848 29.274 24.024 28.256 24.024Z" fill="#000"/>
</svg>
