<svg width="48" height="48" viewBox="0 0 48 48" fill="none" xmlns="http://www.w3.org/2000/svg">
<path d="M24 0C10.746 0 0 10.746 0 24C0 37.254 10.746 48 24 48C37.254 48 48 37.254 48 24C48 10.746 37.254 0 24 0ZM34.252 32.95C34.138 33.104 34.046 33.75 33.896 34.26C33.724 34.85 33.184 34.784 32.584 34.666C31.71 34.496 30.93 34.448 30.022 34.598C28.452 34.86 26.82 37.182 24.084 37.182C21.14 37.182 19.608 34.87 17.976 34.598C16.312 34.322 15.356 34.766 14.782 34.766C14.34 34.766 14.168 34.496 14.102 34.272C13.954 33.77 13.862 33.11 13.746 32.952C12.616 32.778 10.066 32.334 10 31.196C9.984 30.9 10.192 30.638 10.486 30.59C14.23 29.974 16.612 25.752 16.224 24.836C15.948 24.186 14.754 23.952 14.252 23.754C12.956 23.242 12.774 22.654 12.852 22.25C12.958 21.69 13.642 21.314 14.212 21.314C14.762 21.314 15.732 22.048 16.488 21.63C16.378 19.666 16.1 16.856 16.8 15.288C18.134 12.296 21.058 10.816 23.984 10.816C26.93 10.816 29.876 12.316 31.2 15.286C31.898 16.852 31.624 19.648 31.512 21.63C32.226 22.024 33.11 21.296 33.726 21.296C34.33 21.296 35.15 21.704 35.164 22.386C35.174 22.92 34.698 23.38 33.748 23.754C33.238 23.956 32.052 24.188 31.776 24.836C31.38 25.772 33.836 29.982 37.514 30.588C37.806 30.636 38.016 30.896 38 31.194C37.934 32.332 35.372 32.776 34.252 32.95V32.95Z" fill="#000"/>
</svg>
